<svg width="25" height="25" viewBox="0 0 25 25" fill="none" xmlns="http://www.w3.org/2000/svg">
<path d="M25 20.1178C25 20.679 24.8036 21.156 24.4108 21.5488L21.5488 24.4108C21.156 24.8036 20.679 25 20.1178 25C19.5567 25 19.0797 24.8036 18.6869 24.4108L12.5 18.2239L6.31313 24.4108C5.92031 24.8036 5.44332 25 4.88216 25C4.32099 25 3.844 24.8036 3.45118 24.4108L0.589226 21.5488C0.196409 21.156 0 20.679 0 20.1178C0 19.5567 0.196409 19.0797 0.589226 18.6869L6.77609 12.5L0.589226 6.31313C0.196409 5.92031 0 5.44332 0 4.88216C0 4.32099 0.196409 3.844 0.589226 3.45118L3.45118 0.589226C3.844 0.196409 4.32099 0 4.88216 0C5.44332 0 5.92031 0.196409 6.31313 0.589226L12.5 6.77609L18.6869 0.589226C19.0797 0.196409 19.5567 0 20.1178 0C20.679 0 21.156 0.196409 21.5488 0.589226L24.4108 3.45118C24.8036 3.844 25 4.32099 25 4.88216C25 5.44332 24.8036 5.92031 24.4108 6.31313L18.2239 12.5L24.4108 18.6869C24.8036 19.0797 25 19.5567 25 20.1178Z" fill="#EBECF0"/>
</svg>
