<svg width="27" height="27" viewBox="0 0 27 27" fill="none" xmlns="http://www.w3.org/2000/svg">
<path fill-rule="evenodd" clip-rule="evenodd" d="M3.00052 12.0082C3.00052 10.8255 3.23349 9.65437 3.68612 8.56169C4.13875 7.46902 4.80218 6.47619 5.63853 5.63989C6.47488 4.80359 7.46778 4.1402 8.56052 3.6876C9.65327 3.235 10.8245 3.00205 12.0072 3.00205C13.19 3.00205 14.3612 3.235 15.454 3.6876C16.5467 4.1402 17.5396 4.80359 18.376 5.63989C19.2123 6.47619 19.8757 7.46902 20.3284 8.56169C20.781 9.65437 21.014 10.8255 21.014 12.0082C21.014 14.3968 20.065 16.6875 18.376 18.3765C16.6869 20.0655 14.396 21.0143 12.0072 21.0143C9.61851 21.0143 7.32762 20.0655 5.63853 18.3765C3.94944 16.6875 3.00052 14.3968 3.00052 12.0082ZM12.0072 7.4175e-08C10.0961 0.000273676 8.21263 0.456639 6.51336 1.33117C4.81408 2.2057 3.34807 3.47313 2.23718 5.02814C1.12628 6.58315 0.402584 8.38082 0.126224 10.2717C-0.150137 12.1627 0.0288228 14.0923 0.648231 15.9001C1.26764 17.708 2.30961 19.3419 3.68754 20.6661C5.06547 21.9903 6.73956 22.9666 8.5707 23.5137C10.4018 24.0608 12.3371 24.1631 14.2157 23.8119C16.0943 23.4608 17.8619 22.6663 19.3717 21.4947L24.456 26.5786C24.7391 26.8521 25.1183 27.0034 25.5119 26.9999C25.9055 26.9965 26.282 26.8387 26.5603 26.5604C26.8386 26.2821 26.9965 25.9056 26.9999 25.512C27.0034 25.1185 26.8521 24.7393 26.5786 24.4562L21.4943 19.3722C22.8725 17.5972 23.7249 15.4711 23.9546 13.2357C24.1844 11.0003 23.7822 8.74526 22.7938 6.72706C21.8054 4.70887 20.2706 3.00849 18.3637 1.81928C16.4569 0.630068 14.2546 -0.000249651 12.0072 7.4175e-08ZM12.0072 18.0123C13.5997 18.0123 15.127 17.3797 16.2531 16.2537C17.3791 15.1277 18.0117 13.6006 18.0117 12.0082C18.0117 10.4158 17.3791 8.88864 16.2531 7.76266C15.127 6.63667 13.5997 6.0041 12.0072 6.0041C10.4148 6.0041 8.88749 6.63667 7.76143 7.76266C6.63538 8.88864 6.00276 10.4158 6.00276 12.0082C6.00276 13.6006 6.63538 15.1277 7.76143 16.2537C8.88749 17.3797 10.4148 18.0123 12.0072 18.0123Z" fill="#1F4F8E"/>
</svg>
